<svg xmlns="http://www.w3.org/2000/svg" width="1024" height="640" viewBox="0 0 640 400">
 <defs><linearGradient id="field" x2=".8" y2="1"><stop stop-color="#101722"/><stop offset=".48" stop-color="#05080d"/><stop offset="1" stop-color="#a9bac9" stop-opacity=".24"/></linearGradient><linearGradient id="metal" x1=".15" y1="0" x2=".8" y2="1"><stop stop-color="#fff4d8"/><stop offset=".28" stop-color="#a9bac9"/><stop offset=".48" stop-color="#eef2e8"/><stop offset=".58" stop-color="#a9bac9"/><stop offset="1" stop-color="#a9bac9" stop-opacity=".5"/></linearGradient><pattern id="weave" width="4" height="4" patternUnits="userSpaceOnUse"><path d="M0 0h4M0 0v4" stroke="#b4c1d0" stroke-opacity=".045" stroke-width=".5"/></pattern></defs>
 <path fill="url(#field)" d="M0 0H640V400H0Z"/>
 <path d="M25 0H75L260 200 75 400H25L211 200Z M640 0H600L420 200 600 400H640L464 200Z" fill="#a9bac9" opacity=".12"/>
 <path d="M25 16H616V384H25Z M34 23H607V377H34Z" fill="none" stroke="#a9bac9" stroke-width="2" opacity=".75"/>
 <g fill="#a9bac9" opacity=".5"></g>
 <path d="M40 71H600M40 329H600" stroke="#a9bac9" opacity=".24"/>
 <circle cx="327" cy="197" r="119" fill="none" stroke="#a9bac9" stroke-width="1" opacity=".18"/>
 <g transform="translate(163 29) scale(.82)"><path d="M200 90 308 252 258 252 200 164 142 252 92 252Z" fill="url(#metal)" stroke="#a9bac9" stroke-width="2" fill-rule="evenodd"/><path d="" fill="#080b13"/><path d="M184 202 176 204 M216 202 224 204" stroke="#a9bac9" stroke-width="3"/></g><path fill="url(#weave)" d="M0 0H640V400H0Z"/>
 <path d="M61 356h80m-80 5h44M500 356h80m-44 5h44" stroke="#a9bac9" opacity=".65"/>
 </svg>